<svg class="sc-uJiQo zHkyT sc-bbpQIs sc-cKuNTH eUuXPO jvVijS" height="24px" width="24px" viewBox="0 0 24 24"
  xmlns="http://www.w3.org/2000/svg">
  <path
    d="M9 9V15H12C13.5913 15 15.1174 15.6321 16.2426 16.7574C17.3679 17.8826 18 19.4087 18 21V24H6C4.4087 24 2.88258 23.3679 1.75736 22.2426C0.632141 21.1174 0 19.5913 0 18V6C0 4.4087 0.632141 2.88258 1.75736 1.75736C2.88258 0.632141 4.4087 0 6 0L18 0C19.5913 0 21.1174 0.632141 22.2426 1.75736C23.3679 2.88258 24 4.4087 24 6V9H9Z">
  </path>
</svg>